<svg xmlns="http://www.w3.org/2000/svg" width="12" height="13" viewBox="0 0 12 13" fill="none">
  <g clip-path="url(#clip0_5226_99567)">
    <path
      d="M6 0.268555C7.6568 0.268555 9.15703 0.940274 10.2427 2.0259C11.3283 3.11176 12 4.61176 12 6.26855C12 7.92535 11.3283 9.42559 10.2427 10.5112C9.15703 11.5968 7.6568 12.2686 6 12.2686C4.3432 12.2686 2.8432 11.5968 1.75734 10.5112C0.671719 9.42559 0 7.92535 0 6.26855C0 4.61176 0.671719 3.11176 1.75734 2.0259C2.8432 0.940274 4.3432 0.268555 6 0.268555ZM5.49633 7.3352V7.28762C5.50008 6.97215 5.53102 6.7223 5.59172 6.53645C5.65125 6.35082 5.7368 6.19965 5.84883 6.08527C5.96063 5.96996 6.09516 5.8652 6.25242 5.7698C6.35344 5.70559 6.44508 5.63434 6.52617 5.55465C6.60703 5.4759 6.67125 5.38426 6.71906 5.28066C6.76641 5.17824 6.79031 5.0641 6.79031 4.93801C6.79031 4.78801 6.75469 4.65816 6.6832 4.54754C6.61289 4.43785 6.51773 4.35348 6.40102 4.29277C6.28312 4.23324 6.15234 4.20348 6.0082 4.20348C5.87859 4.20348 5.75484 4.22949 5.63578 4.28434C5.51789 4.33801 5.41898 4.42238 5.34164 4.53676C5.2643 4.6509 5.21906 4.79738 5.20711 4.97598H4.43578C4.44773 4.67246 4.52508 4.41535 4.66664 4.20465C4.80961 3.99395 4.99781 3.83434 5.23102 3.72605C5.46563 3.61777 5.72508 3.56434 6.0082 3.56434C6.32016 3.56434 6.59156 3.62129 6.82477 3.73801C7.0582 3.85355 7.24031 4.01527 7.37016 4.22246C7.49859 4.42965 7.56422 4.67012 7.56422 4.94621C7.56422 5.13559 7.53445 5.30574 7.47492 5.45691C7.41539 5.60809 7.33195 5.74379 7.2225 5.86168C7.11281 5.98074 6.9832 6.08527 6.83086 6.17598C6.68672 6.26645 6.57023 6.35926 6.48211 6.45559C6.39281 6.55191 6.32836 6.66629 6.28805 6.7973C6.2475 6.92926 6.225 7.09238 6.22148 7.28762V7.3352H5.49633ZM5.87977 8.87785C5.74055 8.87691 5.62148 8.82793 5.52141 8.72902C5.42156 8.63035 5.37258 8.51012 5.37258 8.36973C5.37258 8.23168 5.42156 8.11262 5.52141 8.01371C5.62148 7.91504 5.74055 7.86488 5.87977 7.86488C6.01664 7.86488 6.1357 7.91504 6.23555 8.01371C6.3368 8.11262 6.38672 8.23168 6.38672 8.36973C6.38672 8.46254 6.36305 8.54832 6.31664 8.62449C6.27023 8.70184 6.20953 8.76371 6.13336 8.80895C6.05719 8.85418 5.97258 8.87691 5.87977 8.87785ZM9.79008 2.47848C8.82023 1.50887 7.48008 0.908867 6 0.908867C4.51992 0.908867 3.18 1.50887 2.20992 2.47848C1.24031 3.44855 0.640312 4.78848 0.640312 6.26855C0.640312 7.74863 1.24031 9.08879 2.20992 10.0586C3.18 11.0282 4.51992 11.6282 6 11.6282C7.48008 11.6282 8.82023 11.0282 9.79008 10.0586C10.7597 9.08879 11.3597 7.74863 11.3597 6.26855C11.3597 4.78848 10.7597 3.44855 9.79008 2.47848Z"
      fill="black" />
  </g>
  <defs>
    <clipPath id="clip0_5226_99567">
      <rect width="12" height="12" fill="white" transform="translate(0 0.268555)" />
    </clipPath>
  </defs>
</svg>