<svg xmlns="http://www.w3.org/2000/svg" width="14" height="19" viewBox="0 0 14 19" fill="none">
  <g clip-path="url(#clip0_5411_99603)">
  <path d="M12.3046 4.36898H11.396C11.1186 2.14971 9.25287 0.428711 7 0.428711C4.74713 0.428711 2.88175 2.14971 2.604 4.36898H1.69545C0.760506 4.36898 0 5.1436 0 6.09589V16.9018C0 17.8541 0.760506 18.6287 1.69545 18.6287H12.3046C13.2395 18.6287 14 17.8541 14 16.9018V6.09589C14 5.1436 13.2395 4.36898 12.3046 4.36898ZM7 1.57605C8.63044 1.57605 9.98892 2.78501 10.257 4.36898H3.74299C4.01108 2.78501 5.36956 1.57605 7 1.57605ZM12.8736 16.9018C12.8736 17.2214 12.6183 17.4814 12.3046 17.4814H1.69545C1.38166 17.4814 1.12644 17.2214 1.12644 16.9018V6.09589C1.12644 5.77627 1.38166 5.51632 1.69545 5.51632H12.3046C12.6183 5.51632 12.8736 5.77627 12.8736 6.09589V16.9018Z" fill="#B8B8B8"/>
  </g>
  <defs>
  <clipPath id="clip0_5411_99603">
  <rect width="14" height="18.2" fill="white" transform="translate(0 0.428711)"/>
  </clipPath>
  </defs>
</svg>